<?xml version="1.0" ?><svg id="Layer_1" style="enable-background:new 0 0 1000 1000;" version="1.1" viewBox="0 0 1000 1000" xml:space="preserve" xmlns="http://www.w3.org/2000/svg" xmlns:xlink="http://www.w3.org/1999/xlink"><style type="text/css">
	.st0{fill:#191919;}
	.st1{fill:#EDEDED;}
	.st2{fill:url(#XMLID_3_);}
	.st3{fill:#BFBFBF;}
	.st4{fill:url(#XMLID_4_);}
	.st5{fill:url(#XMLID_5_);}
	.st6{fill:url(#XMLID_6_);}
	.st7{fill:url(#XMLID_7_);}
	.st8{fill:#D8D8D8;}
	.st9{opacity:0.2;fill:#FFFFFF;}
</style><g id="XMLID_31_"><path class="st0" d="M875,500c0,103.5-42,197.3-109.8,265.2C697.3,833,603.5,875,500,875   c-207.1,0-375-167.9-375-375c0-103.5,42-197.3,109.8-265.2C302.7,167,396.5,125,500,125C707.1,125,875,292.9,875,500z" id="XMLID_65_"/><path class="st0" d="M546.9,500c0,25.9-21,46.9-46.9,46.9s-46.9-21-46.9-46.9c0-25.9,21-46.9,46.9-46.9   S546.9,474.1,546.9,500z" id="XMLID_60_"/><path class="st1" d="M500,546.9c-25.9,0-46.9-21-46.9-46.9c0-25.9,21-46.9,46.9-46.9s46.9,21,46.9,46.9   C546.9,525.9,525.9,546.9,500,546.9z" id="XMLID_49_"/><linearGradient gradientUnits="userSpaceOnUse" id="XMLID_3_" x1="500" x2="500" y1="500" y2="593.75"><stop offset="0" style="stop-color:#FFFFFF;stop-opacity:0.1"/><stop offset="1" style="stop-color:#000000;stop-opacity:0"/></linearGradient><rect class="st2" height="93.8" id="XMLID_2_" width="93.8" x="453.1" y="500"/><path class="st3" d="M546.9,500c0,25.9-21,46.9-46.9,46.9s-46.9-21-46.9-46.9c0-25.9,21-46.9,46.9-46.9   S546.9,474.1,546.9,500z" id="XMLID_39_"/><linearGradient gradientUnits="userSpaceOnUse" id="XMLID_4_" x1="500" x2="500" y1="687.5" y2="828.125"><stop offset="0" style="stop-color:#FFFFFF;stop-opacity:0.1"/><stop offset="1" style="stop-color:#000000;stop-opacity:0"/></linearGradient><rect class="st4" height="140.6" id="XMLID_27_" width="187.5" x="406.3" y="687.5"/><linearGradient gradientUnits="userSpaceOnUse" id="XMLID_5_" x1="312.5" x2="312.5" y1="500" y2="640.625"><stop offset="0" style="stop-color:#FFFFFF;stop-opacity:0.1"/><stop offset="1" style="stop-color:#000000;stop-opacity:0"/></linearGradient><rect class="st5" height="140.6" id="XMLID_28_" width="187.5" x="218.8" y="500"/><linearGradient gradientUnits="userSpaceOnUse" id="XMLID_6_" x1="687.5" x2="687.5" y1="500" y2="640.625"><stop offset="0" style="stop-color:#FFFFFF;stop-opacity:0.1"/><stop offset="1" style="stop-color:#000000;stop-opacity:0"/></linearGradient><rect class="st6" height="140.6" id="XMLID_29_" width="187.5" x="593.8" y="500"/><linearGradient gradientUnits="userSpaceOnUse" id="XMLID_7_" x1="500" x2="500" y1="312.5" y2="453.125"><stop offset="0" style="stop-color:#FFFFFF;stop-opacity:0.1"/><stop offset="1" style="stop-color:#000000;stop-opacity:0"/></linearGradient><rect class="st7" height="140.6" id="XMLID_30_" width="187.5" x="406.3" y="312.5"/><path class="st1" d="M781.3,500c0,51.8-42,93.8-93.8,93.8c-8.1,0-15.9-1-23.4-3c0,0,0,0-0.1,0   c-40.4-10.4-70.3-47.1-70.3-90.8s29.9-80.4,70.3-90.8c0.1,0,0.1,0,0.1,0c7.5-1.9,15.3-3,23.4-3C739.3,406.3,781.3,448.2,781.3,500z   " id="XMLID_44_"/><path class="st1" d="M406.3,500c0,43.7-29.9,80.4-70.3,90.8c-0.1,0-0.1,0-0.1,0c-7.5,1.9-15.3,3-23.4,3   c-51.8,0-93.8-42-93.8-93.8s42-93.8,93.8-93.8c8.1,0,15.9,1,23.4,3c0,0,0,0,0.1,0C376.4,419.6,406.3,456.3,406.3,500z" id="XMLID_43_"/><path class="st1" d="M593.8,687.5c0,51.8-42,93.8-93.8,93.8s-93.8-42-93.8-93.8c0-8.1,1-15.9,3-23.4c0,0,0,0,0-0.1   c10.4-40.4,47.1-70.3,90.8-70.3s80.4,29.9,90.8,70.3c0,0.1,0,0.1,0,0.1C592.7,671.6,593.8,679.4,593.8,687.5z" id="XMLID_42_"/><path class="st1" d="M593.8,312.5c0,8.1-1,15.9-3,23.4c0,0,0,0,0,0.1c-10.4,40.4-47.1,70.3-90.8,70.3   s-80.4-29.9-90.8-70.3c0-0.1,0-0.1,0-0.1c-1.9-7.5-3-15.3-3-23.4c0-51.8,42-93.8,93.8-93.8S593.8,260.7,593.8,312.5z" id="XMLID_41_"/><path class="st8" d="M406.3,500c0,43.7-29.9,80.4-70.3,90.8c-0.1,0-0.1,0-0.1,0c-14.9-26.9-23.4-57.9-23.4-90.8   s8.5-63.9,23.4-90.8c0,0,0,0,0.1,0C376.4,419.6,406.3,456.3,406.3,500z" id="XMLID_48_"/><path class="st8" d="M500,312.5c32.9,0,63.9,8.5,90.8,23.4c0,0,0,0,0,0.1c-10.4,40.4-47.1,70.3-90.8,70.3   s-80.4-29.9-90.8-70.3c0-0.1,0-0.1,0-0.1C436.1,321,467.1,312.5,500,312.5z" id="XMLID_50_"/><path class="st8" d="M590.8,664.1C590.8,664.1,590.8,664.1,590.8,664.1c-26.9,14.9-57.9,23.4-90.8,23.4   s-63.9-8.5-90.8-23.4c0,0,0,0,0-0.1c10.4-40.4,47.1-70.3,90.8-70.3S580.4,623.6,590.8,664.1z" id="XMLID_51_"/><path class="st8" d="M687.5,500c0,32.9-8.5,63.9-23.4,90.8c0,0,0,0-0.1,0c-40.4-10.4-70.3-47.1-70.3-90.8   s29.9-80.4,70.3-90.8c0.1,0,0.1,0,0.1,0C679,436.1,687.5,467.1,687.5,500z" id="XMLID_52_"/><path class="st9" d="M875,500c0,103.5-42,197.3-109.8,265.2L466.9,466.9l-232-232C302.7,167,396.5,125,500,125   C707.1,125,875,292.9,875,500z" id="XMLID_53_"/></g></svg>